<?xml version="1.0" encoding="utf-8"?>
<!-- Generator: Adobe Illustrator 28.1.0, SVG Export Plug-In . SVG Version: 6.00 Build 0)  -->
<svg version="1.1" id="Capa_1" xmlns="http://www.w3.org/2000/svg" xmlns:xlink="http://www.w3.org/1999/xlink" x="0px" y="0px"
	 viewBox="0 0 231 244" style="enable-background:new 0 0 231 244;" xml:space="preserve">
<style type="text/css">
	.st0{fill:#63B951;}
	.st1{fill:#FF527D;}
	.st2{fill:#F04D74;}
	.st3{fill:#F9F0E0;}
	.st4{fill:#E7DECD;}
	.st5{fill:#E2DBCD;}
	.st6{fill:#D3CABC;}
</style>
<g>
	<path class="st0" d="M95.23,55.83l6.15-5.84c0.61-0.58,1.55-0.59,2.18-0.05c4.01,3.46,17.32,16.22,18.75,34.04L122,93l-9-1
		l-2.08-7.83c0,0-0.88-11.54-15.69-25.99C94.57,57.53,94.56,56.47,95.23,55.83z"/>
	<path class="st1" d="M117,85.62c0,0-13.45-8.07-20.82,8.06C95.4,95.38,95,97.25,95,99.13v0c0,2.13,0.5,4.23,1.5,6.1
		c2.09,3.91,6.69,10.8,15.73,17.77h5.71L117,85.62z"/>
	<path class="st2" d="M117,85.62c0,0,14.45-8.07,21.82,8.06c0.78,1.71,1.18,3.57,1.18,5.45v0c0,2.13-0.5,4.23-1.5,6.1
		c-2.09,3.91-6.69,10.8-15.73,17.77h-5.71L117,85.62z"/>
	<path class="st3" d="M56,158.83v-22c0,0,1.79-14,15.4-15s46.1,0,46.1,0v37H56z"/>
	<path class="st4" d="M45,192.21V174c0,0-3.04-14,13-15s59.5,0,59.5,0v37H48.79C46.7,196,45,194.3,45,192.21z"/>
	<path class="st4" d="M45,192.04v-18.21c0,0-3.04-14,13-15s59.5,0,59.5,0v37H48.79C46.7,195.83,45,194.13,45,192.04z"/>
	<path class="st5" d="M178.44,158.83v-22c0,0-1.79-14-15.4-15s-46.1,0-46.1,0v37H178.44z"/>
	<path class="st6" d="M189.44,192.04v-18.21c0,0,3.04-14-13-15s-59.5,0-59.5,0v37h68.71C187.74,195.83,189.44,194.13,189.44,192.04z
		"/>
</g>
<g>
</g>
<g>
</g>
<g>
</g>
<g>
</g>
<g>
</g>
<g>
</g>
<g>
</g>
<g>
</g>
<g>
</g>
<g>
</g>
<g>
</g>
<g>
</g>
<g>
</g>
<g>
</g>
<g>
</g>
</svg>
